<mxfile host="app.diagrams.net" agent="Mozilla/5.0 (Windows NT 10.0; Win64; x64) AppleWebKit/537.36 (KHTML, like Gecko) Chrome/109.0.0.0 Safari/537.36" version="24.9.1">
  <diagram name="PÃ¡gina-1" id="w9X7BjZ7X0Y7kaPKfurV">
    <mxGraphModel dx="1489" dy="1527" grid="0" gridSize="10" guides="1" tooltips="1" connect="1" arrows="1" fold="1" page="0" pageScale="1" pageWidth="827" pageHeight="1169" math="0" shadow="0">
      <root>
        <mxCell id="0" />
        <mxCell id="1" parent="0" />
        <mxCell id="S2QST9dX_z6Op_51YBZc-1" value="&amp;lt;&amp;lt;abstract&amp;gt;&amp;gt;&lt;div&gt;Funcionario&lt;/div&gt;" style="swimlane;fontStyle=1;align=center;verticalAlign=top;childLayout=stackLayout;horizontal=1;startSize=38;horizontalStack=0;resizeParent=1;resizeParentMax=0;resizeLast=0;collapsible=1;marginBottom=0;whiteSpace=wrap;html=1;fillColor=#BAC8D3;" vertex="1" parent="1">
          <mxGeometry x="-560" y="-711" width="250" height="303" as="geometry" />
        </mxCell>
        <mxCell id="S2QST9dX_z6Op_51YBZc-2" value="- salario: double&lt;div&gt;- nome: String&amp;nbsp;&lt;/div&gt;&lt;div&gt;- email: String&amp;nbsp; &amp;nbsp;&lt;br&gt;&lt;/div&gt;" style="text;strokeColor=none;fillColor=none;align=left;verticalAlign=middle;spacingLeft=4;spacingRight=4;overflow=hidden;rotatable=0;points=[[0,0.5],[1,0.5]];portConstraint=eastwest;whiteSpace=wrap;html=1;" vertex="1" parent="S2QST9dX_z6Op_51YBZc-1">
          <mxGeometry y="38" width="250" height="64" as="geometry" />
        </mxCell>
        <mxCell id="S2QST9dX_z6Op_51YBZc-3" value="" style="line;strokeWidth=1;fillColor=none;align=left;verticalAlign=middle;spacingTop=-1;spacingLeft=3;spacingRight=3;rotatable=0;labelPosition=right;points=[];portConstraint=eastwest;strokeColor=inherit;" vertex="1" parent="S2QST9dX_z6Op_51YBZc-1">
          <mxGeometry y="102" width="250" height="8" as="geometry" />
        </mxCell>
        <mxCell id="S2QST9dX_z6Op_51YBZc-4" value="&lt;div&gt;+ Funcionario(salario: double, nome: String, email: String)&lt;/div&gt;&lt;div&gt;+ getSalario(): double&amp;nbsp;&lt;/div&gt;&lt;div&gt;+ getNome(): String&amp;nbsp;&lt;/div&gt;&lt;div&gt;+ getEmail(): String&amp;nbsp;&lt;/div&gt;&lt;div&gt;+ setSalario(salario: double)&amp;nbsp;&lt;/div&gt;&lt;div&gt;+ setNome(nome: String)&amp;nbsp;&lt;/div&gt;&lt;div&gt;+ setEmail(email: String)&amp;nbsp;&lt;/div&gt;&lt;div&gt;+ calcSalarioLiquido(): double&amp;nbsp;&lt;/div&gt;&lt;div&gt;# calcDescontosPrevidencia():&amp;nbsp;double&amp;nbsp;&lt;/div&gt;&lt;div&gt;# calcDescontosPlanoSaude():&amp;nbsp;double&amp;nbsp;&lt;/div&gt;&lt;div&gt;# calcOutrosDescontos():&amp;nbsp;double&amp;nbsp;&amp;nbsp; &amp;nbsp;&amp;nbsp;&lt;/div&gt;" style="text;strokeColor=none;fillColor=none;align=left;verticalAlign=middle;spacingLeft=4;spacingRight=4;overflow=hidden;rotatable=0;points=[[0,0.5],[1,0.5]];portConstraint=eastwest;whiteSpace=wrap;html=1;" vertex="1" parent="S2QST9dX_z6Op_51YBZc-1">
          <mxGeometry y="110" width="250" height="193" as="geometry" />
        </mxCell>
      </root>
    </mxGraphModel>
  </diagram>
</mxfile>
